<svg xmlns="http://www.w3.org/2000/svg" viewBox="0 0 231.58 191.75"><defs><style>.cls-1{fill:#f5c1a6;}.cls-2{fill:#d82027;}.cls-3{fill:#ba2025;}.cls-4{fill:#b33332;}.cls-5,.cls-8{fill:#da9b81;}.cls-6{fill:#b97058;}.cls-12,.cls-7{fill:#19100c;}.cls-8{opacity:0.5;}.cls-9{fill:#ededee;}.cls-10{fill:#c96a69;}.cls-11{fill:#d67e7c;}.cls-12{opacity:0.2;}.cls-13{fill:#fde1d8;}.cls-14{fill:#ba5f5e;}.cls-15{fill:#f1a0a0;}.cls-16{fill:#a54a49;}.cls-17{fill:#fdd7c6;}.cls-18{fill:#a5a5a5;}.cls-19{fill:#fff;}.cls-20{fill:#342f25;}.cls-21{fill:#c7c4c4;}</style></defs><g id="Layer_2" data-name="Layer 2"><g id="Layer_1-2" data-name="Layer 1"><path class="cls-1" d="M150.15,141.6s-6,22.39-13.17,31.91a95,95,0,0,1-16,16.3H95.66l-.18-.17c-1.12-1.11-7.45-7.54-10.4-14.3-3.26-7.44-2.7-18.4-2.7-18.4a37.27,37.27,0,0,0,23.48,8.43c13.88-.2,33-12.85,36.34-17.81s6.12-9.28,6.12-9.28Z"/><path class="cls-2" d="M228.45,189.81H3.72s7.23-13.89,12.91-17.5,33.15-12.13,33.15-12.13,13.35-4.5,15.14-4.7S75.51,151,75.51,151s4.29,4.2,4.39,4.49,5.5,16.14,6.71,20.15,9.42,12.42,9.23,13.3,24.35,0,24.35,0,20.15-17.11,23.28-24.35,9.78-27.75,9.78-27.75l20.83,12s35.89,14.9,40.39,17.93S228.45,189.81,228.45,189.81Z"/><path class="cls-3" d="M134.24,186.16s17.09-14.21,18.52-17.34,1.55-7.44,3.52-6.78,18.56,18,18.56,18l-5.78-20.19s4.49,2.77,6.39,4.2,18.25,12.34,18.25,12.34l5.74,1.3s-16.95-15.94-17.86-16.44,12.78.37,14.21,2.08-22.8-13.81-23.32-14.14-19.71-9.38-19.71-9.38Z"/><path class="cls-3" d="M68,189.81s2.61-15.35,2.81-18.87.78-8.91-.4-8.47S53.4,185,53.4,185l-4.75,4.79s6.9-15,6.21-14.28-11.34,15.26-11.34,15.26H40.59s8.42-18.68,8.46-19.46-1.49-.82-3.09,0S33.74,181,33.74,181l7.06-13.36s-1.36.7-4.22,2.31a100.11,100.11,0,0,0-9.1,6.66l1.86-4.83A67.75,67.75,0,0,0,24,176.62c-1.37,1.55-10.76,8.69-10.76,8.69l8.32-15.64s41.69-13.35,42.54-13.77,9.58-6,9.58-6l7.84,7.5s-4.51,10.9-5.1,11.47-2.76.56-3.23,3.4.7,18.48.7,18.48Z"/><path class="cls-4" d="M87.14,189.81c-.2-.59-7.53-20.14-8.9-17.5s-1.47,17.11-1.47,17.11l-3.91-.2s0-30.52-1.57-28S53.4,185,53.4,185s11.44-22.79,10.95-22.59-15.7,27.38-15.7,27.38l-5.13,1s18.58-31.59,18.39-32-.88-1-2,0-17.7,25.43-17.7,25.43a26.66,26.66,0,0,1,.59-7.92c1-4.21,6.45-13.7,6.45-13.7s-4,3.28-7.12,5.42-11,7-11,7,7.39-10,6.65-10.36-11.56,3.67-13.07,5.4-7,12.3-7,12.3l.39-2.64-3.62,10.07H2.44S14.26,174,17.84,171.62s49.6-16.4,50.16-17.2,5.64-4.48,5.64-4.48l8.81,9.46s-.53,7.65,2,13.69,11.16,16.72,11.16,16.72Z"/><path class="cls-4" d="M132.94,189.81s7.82-7.3,12.65-14.6,11.08-21.7,11.73-21.94,14.35,19.59,14.35,19.59l-5.74-14.47a37.46,37.46,0,0,1,9.52,5.65c5.21,4.13,18.25,12.34,18.25,12.34l-10.95-11a19.56,19.56,0,0,1,10.17,2.28c4.7,2.73,17.74,13.16,17.74,13.16L210,178l9,11.86h7.69s-9.51-19.8-14.34-22.16-29.6-11.64-35.47-15.6-25.29-15.83-25.29-15.83-7.41,26.49-10.17,30.77-21.23,21.94-21.23,21.94Z"/><path class="cls-3" d="M143.5,163c.75-.75,10.63-16.82,11.7-17s20.35,12.45,20.35,12.45l-2.11-2.74s24.5,11.14,26.36,12,5.67,2.31,5.67,2.31,2.35.29,5.58,3.13,11.11,8,11.11,8l-11.67-16.47S175.6,150,174.84,149.41s-14.75-9.67-15.53-9.61-7.72-3.58-7.72-3.58-2.45,12.42-3.92,14.77S143.5,163,143.5,163Z"/><path class="cls-5" d="M150.15,141.6s-6,22.39-13.17,31.91a91.18,91.18,0,0,1-10.9,11.9c-3,2.78-5.14,4.4-5.14,4.4h-6.38a8.9,8.9,0,0,1,3-3.13c7-4.17,15.09-22.64,15.09-22.64a42.23,42.23,0,0,1-25.46,9.34c-15.81.52-17.79-3.91-17.79-3.91s0,2.61,1.92,8.34,9.38,11.51,9.38,11.51a38.54,38.54,0,0,1-5.25.32c-1.12-1.11-7.45-7.54-10.4-14.3-1.82-4.16-2.45-9.43-2.65-13.26-.16-3-.05-5.14-.05-5.14a37.27,37.27,0,0,0,23.48,8.43c13.88-.2,33-12.85,36.34-17.81s6.12-9.28,6.12-9.28Z"/><path class="cls-6" d="M150.15,141.6s-6,22.39-13.17,31.91a91.18,91.18,0,0,1-10.9,11.9,3.6,3.6,0,0,1,1.2-3.37c7.09-6.9,8.95-22.06,8.95-22.06a52.38,52.38,0,0,1-29.81,10.39C89,170.58,85.08,163,85.08,163s-1.09-.3-2.65-.9c-.16-3-.05-5.14-.05-5.14a37.27,37.27,0,0,0,23.48,8.43c13.88-.2,33-12.85,36.34-17.81s6.12-9.28,6.12-9.28Z"/><path class="cls-6" d="M85.38,167.12s8.58,18.65,16.12,21C101.5,188.09,87.24,187.56,85.38,167.12Z"/><path class="cls-7" d="M217.31,165.67c-5.09-3.81-8.22-5-15.46-8.23s-30-11.57-31.75-12.88-12.12-8.08-13.82-9a55.79,55.79,0,0,1-6.11-4.92L73.35,147.56A72,72,0,0,1,68,152.75a16.12,16.12,0,0,1-3.91,1.37c-2.06.58-8.71,2-12.36,3.32s-32.14,9.1-38.4,15.16S0,191.75,0,191.75H231.58S222.39,169.47,217.31,165.67ZM6.85,188.09s4.4-8.45,6.84-10.5,5.09-4.4,5.09-4.4v3.91s2.44-4.79,4.69-6.36,20.93-7.22,20.93-7.22L37.85,171s9.29-6.55,11.44-7.51,4.89-1.29,6.94-1.78,5.68-2.93,5.68-2.93L51.15,177.2s12.61-16,14.67-18.68a8.06,8.06,0,0,1,4.69-3L56.14,179.74s7.43-4.89,9.58-7,7.33-13.59,7.33-13.59L76,174.26s1.2-15.16,1.2-15.65,3.52,10.57,5.29,14.87,8,14.61,8,14.61Zm97.27-.1c-12.65-1.31-19.18-12.38-19-29.21s64-24.39,64-24.39-4.4,24.91-10.65,34S116.77,189.29,104.12,188Zm37.95-17.87c6.39-8.34,11.47-30.32,11.47-30.32s10,6.59,11.74,7.76,11.47,15.26,11.47,15.26l-1.95-9.26s22.29,9.26,24.64,10.56,9,12,9,12l-2.61-8.47s5.35,1.69,6.52,2.6,11.35,17.84,11.35,17.84H126A214.34,214.34,0,0,0,142.07,170.12Z"/><path class="cls-1" d="M156,94.1s-3.39,31.69-7.43,41.6c-2.23,5.45-8.79,14.51-18.2,21.24-7.67,5.49-17.24,9.44-27.88,8.62a31.75,31.75,0,0,1-4.71-.72h0c-20.35-4.68-29.32-28.06-29.93-31-.65-3.13-3.17-30.38-3-32.08s-1.44-11.5-1.67-16.11c0-.36,0-.68,0-1v-13S66,54.33,77.12,46a21.27,21.27,0,0,1,10.13-4.18C106.86,39.2,123,52.11,123,52.11S137.23,66.33,144.68,70s9.84,1.56,9.84,1.56S157.07,85.38,156,94.1Z"/><path class="cls-5" d="M90.66,137.82a38.64,38.64,0,0,1-4.21-1.93c-.8-.56-1.41-1.45-3.13-1.5s-1.92.32-1.82,1.05,1.3,1.73,2.5,2.1,4,1.22,4.41,1.33S90.66,137.82,90.66,137.82Z"/><path class="cls-6" d="M116.67,137.69a9,9,0,0,1,2.77-2.34,5.32,5.32,0,0,1,3.38-.24c1.15.26.8,2.16-.12,2.59s-7.54,1-7.54,1Z"/><path class="cls-8" d="M88.37,117.22c.08.29.14.5.15.55S88.31,117.59,88.37,117.22Z"/><path class="cls-8" d="M156,94.1s-3.39,31.69-7.43,41.6c-2.23,5.45-8.79,14.51-18.2,21.24-7.67,5.49-17.24,9.44-27.88,8.62a31.75,31.75,0,0,1-4.71-.72c5.21-.52,7.43-12.45,1.4-15.06S90,141,90,141l7.89-1s3.89-7,2.67-9.91-6.45-3.39-7.63-6-1.68-2.66-1.68-2.66l5.28.05a32.73,32.73,0,0,0,5.25-.81c1.22-.47,2.24-3.7-1.41-4.68s-5-.72-9.06-.19c-2.29.29-2.89,1-3,1.47a6.44,6.44,0,0,1-.07-3.56c.62-1.59,4.57-2.45,4.57-2.45s4.15-1.46,6-4.66S100,83.93,103,81.19s15-12.78-2.38-13.3-22.69,8-22.69,8L76,61.12s0-3,1.16-15.13a21.27,21.27,0,0,1,10.13-4.18C106.86,39.2,123,52.11,123,52.11S137.23,66.33,144.68,70s9.84,1.56,9.84,1.56S157.07,85.38,156,94.1Z"/><path class="cls-8" d="M93.91,105.38s.53-11.58.12-14.92-4.51-3.4-4.51-3.4L88.6,93l-2.19,2.74s.56,1,1.67,2.67,1.37,1.89,1.57,3.26S93.91,105.38,93.91,105.38Z"/><path class="cls-5" d="M160.06,74.68s3.91-.45,5.18,1.08,1.2,7.84,0,10.78-2.83,7.17-2.77,10.17-.45,17-7.62,10.4l1-14.77Z"/><path class="cls-9" d="M160.51,65.41a15,15,0,0,1-2.58,3.41c-2.07,2.06-5.33,4-9.62,2.64-7.81-2.53-26.28-26-44.84-28.17-9.12-1.1-16.65-1-22.48.62C75,45.62,70.71,49,68.39,54.59a151.11,151.11,0,0,0-6.78,20.09,14.29,14.29,0,0,1-6.81,1,6,6,0,0,1-2.58-1c-3.52-2.56,0-17.81,0-17.81A53.67,53.67,0,0,1,64.64,41.7a36.94,36.94,0,0,1,18.1-8.47c20.08-3,35.2.71,46.81,8.23S160.51,65.41,160.51,65.41Z"/><path class="cls-2" d="M161.89,66.59s-18.14-18.38-38.74-28.3a62.9,62.9,0,0,0-16.68-5.62c-26.34-4.46-43.25,8.79-43.25,8.79C64.7,33.94,72.62,20.09,87,10.65s35.34-10.83,46-4.83,22.17,21.26,23.22,25.56c.42,1.71,1.4,7.65,2.42,14.18C160.25,55.41,161.89,66.59,161.89,66.59Z"/><path class="cls-5" d="M156,94.1s-3.39,31.69-7.43,41.6c-2,4.84-7.38,12.53-15.15,18.9h0c-1,.8-2,1.58-3,2.33,9.29-14.74,7.11-34.46,7.37-39.68.4-7.87,3.66-13.25,5.87-17.81s3.65-9.91,1.18-9.73-5.68,4.84-9.72,6.86a11.07,11.07,0,0,1-7.71.85,10.36,10.36,0,0,0,4.71-2.16,16,16,0,0,1-6.39,1A20,20,0,0,1,118.4,95c.72,2,5.28,3.78,5.28,3.78-7.89.13-8.47-1.43-8.47-1.43a41.12,41.12,0,0,1-.53,6.26c-.52,3-1.17,4.43-1.11,5.67s4.77,6.84,2,11.8-10.25,2-11.62,1.93-3.1.9-5,.87-3.49-1-4.43-1.24-4.17.13-5.74-.62S86,119.17,86.93,115s5.94-3.82,5.94-3.82-1.72.4-3.16,2.94-.58,3.16.33,3.81,3,.46,5.54,1.34,3.85.29,5.57,0,7,.13,8.25-.23,1.83-3.58.92-4.89-5.22-3.85-5.68-5.54.53-13.1,1.22-17.47a14.08,14.08,0,0,1,3.89-7.34c12.53-4.08,13.87-17.44,4.87-24.28s-22.1-5.29-29.93.78-5.21,16.82-4.17,18,4.3,3.27,8.13,4.29S94.43,89,94,92.32a9.84,9.84,0,0,1-1.74,4.91s-.65-3-1.87-3.13S87.3,95.44,85.8,96a15.53,15.53,0,0,1-4.6.39,6.14,6.14,0,0,0,5.51-4.17s-10-.59-8.73.29a26.51,26.51,0,0,0,4.43,2s-5,.23-6.91-.55-4.4-1.8-5-2.09a21.1,21.1,0,0,1-2.08-1.66L71,88.59c1.24-.78,2.73-.55,3.29-.75s5.43-1.19,5.43-1.19,0-1.45-2-1.25-6.16,1.4-9.35,1.27a18.47,18.47,0,0,1-5.08-1c0-.36,0-.68,0-1v-13s4.41-27.25,24-29.86S123,52.11,123,52.11,137.23,66.33,144.68,70s9.84,1.56,9.84,1.56.21,1.15.49,3C155.69,79.08,156.77,87.89,156,94.1Z"/><path class="cls-6" d="M111.82,122.94s2.11-1.49,1.62-5.68a7.87,7.87,0,0,0-6.22-6.83s4.63-.5,6.66,1.8S115.73,121.26,111.82,122.94Z"/><path class="cls-6" d="M105.62,120.62A4.64,4.64,0,0,1,110,121.7c.71.83,2.54.61,2.54.61a5.1,5.1,0,0,1-4.3,1.06,33.37,33.37,0,0,0-4.17-.78,8.28,8.28,0,0,0-1.89.16S102.56,121.22,105.62,120.62Z"/><path class="cls-6" d="M94.06,122a3.44,3.44,0,0,0-2.89-1.46,2.86,2.86,0,0,0-2.65,1.2,4.67,4.67,0,0,0,2.66.66A12.4,12.4,0,0,0,94.06,122Z"/><path class="cls-6" d="M105.86,99.77s.52-11.93,3.86-14.93,18.66-5.67,18.66-5.67,2.7-4-1-12.58S121.46,52,121.46,52,135,64.57,140.9,67.68a50,50,0,0,0,9.32,4.09c.39.1,2.72.31,2.72.31v6.28a27.5,27.5,0,0,1-6.18,6c-3.26,2-8.17,8.17-10.69,10.08a11.29,11.29,0,0,1-4.74,2.22s1,0,2.48-1.91a19.1,19.1,0,0,0,2.35-4.35s-.13-1.44-1-1.61-4.65-1.09-4.65-1.09,2.12-2.72.17-3.92-9-.9-10.61.45.61,2.69.61,2.69-2.74,1.48-2.87,1.57-1.82,2.17-2.26,2.52,4,1.21,4,1.21a18.93,18.93,0,0,1-4.43.7,5.76,5.76,0,0,0-5,2.13C108.86,96.84,107,97.36,105.86,99.77Z"/><path class="cls-6" d="M79.09,83s-5.43-4-1.8-17.35,28-20.6,32.43-20.08S90,36.2,77.29,44.29,64.16,67.57,64.16,67.57v13s4.4.42,5.18.52S79.09,83,79.09,83Z"/><path class="cls-6" d="M92.26,93.62s.23-2.69.17-3.28,1,.89,1,.89a10.22,10.22,0,0,0-1.19-4.63,10.78,10.78,0,0,0-2.87-2.77H81.67s1.54,1.4.91,2.88c0,0,4.59-.41,5.44.11s1.5,3,1.56,3.13.39.72.28.91a11.82,11.82,0,0,1-2.17.82S91.89,92.1,92.26,93.62Z"/><path class="cls-5" d="M88.08,121.38s-1.08.93-2.91,2.58a31.13,31.13,0,0,1-5.48,3.48s2.52-1.83,3.18-4,2.17-8.09,5.43-9.82Z"/><path class="cls-5" d="M115.5,116.43a18.9,18.9,0,0,1,4.66,4.06c2,2.49,2,4.82,4.3,7A10.19,10.19,0,0,1,120,125c-2.64-2.22-5.27-4.19-5.27-4.19Z"/><path class="cls-10" d="M117.59,137.35c-1.06.44-11.26,4.08-17.29,3.61s-13.46-3.51-13.69-3.61a32.24,32.24,0,0,0,5,.31c1.9.05,3.73.09,4.3.17,1.21.17,4,1.3,4.43,1.3s2.35-.74,3.39-.85,1.39.11,4.62,0l1.6-.09C113.18,137.94,117.44,137.37,117.59,137.35Z"/><path class="cls-11" d="M118.77,137.35c-.1.11-6.66,7.77-16.26,8.55-.33,0-.66,0-1,.06-10.21.3-14.6-6.39-14.91-8.61,0,0,4.24,3.11,12.71,3.38.65,0,1.33,0,2,0A53.21,53.21,0,0,0,118.77,137.35Z"/><path class="cls-12" d="M125.59,135a21.23,21.23,0,0,1-.41,4.84,4.3,4.3,0,0,1-1-1.36l-.65.35a14.36,14.36,0,0,1-1.72-.84,5.42,5.42,0,0,0-2.22-.82c-.78-.1-2.51-.26-3.2-.29h-.58c-1.07,0-3.09.21-4.47.29-1.69.1-4.14,0-4.92,0s-1.4.1-3.55.22a14.61,14.61,0,0,1-4.83-.48,12.92,12.92,0,0,1-2.38-1c-.55-.29-1.63.3-1.63.3l.65-.79a19.35,19.35,0,0,1-3.49.66c-1.1,0-2.72.16-3.19.16s-3.62,0-3.81,0-2.12.88-3.13,1.13a2.33,2.33,0,0,1-1.73-.22l.31-.78-.8.62a5.08,5.08,0,0,1,.33-2.93,4.22,4.22,0,0,1,2.34-2.39l-.3.92s1.18-1.14,1.87-2a15.85,15.85,0,0,1,3.08-2.22c.63-.39,3.18-1.52,3.18-1.52S92.87,124.08,93,124s.2.27.33.53.8-.1.8-.1l.47.71a6.34,6.34,0,0,1,.75.87c.1.23,1.37-.52,1.92-.23s.14-.29,0-.45l1,1.35s.56.3.75.43.29-.33.29-.33l.66.43.45-.46s.75.55,1.08.42a2.36,2.36,0,0,0,.68-.55l0,.52a9.37,9.37,0,0,0,1.5-1.07.39.39,0,0,1,.2-.1c.59-.19,2.32-.33,2.41-.39a5.72,5.72,0,0,0-1,0,27.74,27.74,0,0,1,2.8-1,5.9,5.9,0,0,1,1.78.78c1.12.62,2.74,1.44,2.74,1.44l-1.3-.13a34.08,34.08,0,0,0,5.58,1.9,31.85,31.85,0,0,1,6.52,2.56,13.55,13.55,0,0,1,2.69,2l-1.17-.34A4.07,4.07,0,0,1,125.59,135Z"/><path class="cls-12" d="M101.81,131.92s0,2.83,0,3.22-.75.92-1,1a25,25,0,0,1-4.08-.82,2.72,2.72,0,0,1,0-1.76c.16-.16,1.08-.49,1.76-.94a5.48,5.48,0,0,0,1.18-1.11s-.1,1.82.06,1.56,2.1-3.22,2.1-3.22Z"/><path class="cls-12" d="M125.59,135a21.23,21.23,0,0,1-.41,4.84,4.3,4.3,0,0,1-1-1.36l-.65.35a14.36,14.36,0,0,1-1.72-.84,5.42,5.42,0,0,0-2.22-.82c-.78-.1-2.51-.26-3.2-.29h-.58c-1.1-.35-2.13-.63-2.74-.75a8.48,8.48,0,0,1-2.61-.83s1,1.18,1.09,1.31a13.48,13.48,0,0,1-4-1.61,14.16,14.16,0,0,1-2.3-2c-.52-.53-.17-1.59-.17-1.59l-1.35-.74v-1.3s-1,.22-.83-.18.22-.74.31-1a8.24,8.24,0,0,1,.52-1.09s0-.45,0-1c.59-.19,2.32-.33,2.41-.39a5.72,5.72,0,0,0-1,0,27.74,27.74,0,0,1,2.8-1,5.9,5.9,0,0,1,1.78.78c1.12.62,2.74,1.44,2.74,1.44l-1.3-.13a34.08,34.08,0,0,0,5.58,1.9,31.85,31.85,0,0,1,6.52,2.56,13.55,13.55,0,0,1,2.69,2l-1.17-.34A4.07,4.07,0,0,1,125.59,135Z"/><path class="cls-12" d="M95.58,127.61c.1-.2.2.62-.39,1.47s-.17.52-1.13,1.21-3.43,2.28-3.43,2.28l1.07-1.4a7.76,7.76,0,0,1-2.51,1.63,26.41,26.41,0,0,0-4.09,2.39l.34-.63s-1.06.65-1.76,1.1a10.48,10.48,0,0,1-2.05.88,3.08,3.08,0,0,1,.29-.45,12.05,12.05,0,0,0-1.49.45s.33-.38.26-.45-.45,0-.45,0,.24-.5.13-.5-1.48.61-1.39.5a2.42,2.42,0,0,1,.63-1.48c.63-.54,2.17-2,2.17-2l-.41.63s0-.48,1.37-1.46,3.28-2,3.28-2l-.87.77,2-.94a51.94,51.94,0,0,0,4.69-2.89s-1,.68-.73.7a19.2,19.2,0,0,0,2.13-.54l-1.11,1.17,2.24-.63s-1,1.22-.72,1.22A3.74,3.74,0,0,0,95.58,127.61Z"/><path class="cls-6" d="M96.57,147.56a36.6,36.6,0,0,0,4.81.57,35.76,35.76,0,0,0,5.05-.28l-1.27.5h1s-1,.65-1.34.81a5.43,5.43,0,0,1-3.58.85C99.2,149.78,97,148.83,96.57,147.56Z"/><path class="cls-13" d="M67.58,58.32s-1.65,13.65-1.51,16,2.78,7.21,3,7.57a22,22,0,0,0,2.25,2s-3.46,1.54-.9,5.89l-1.93.44S71,104,71.29,109.23s-.39,19.89,4.11,29.94,9.1,18.27,9.1,18.27S70,148.35,67.87,133.87,63.79,92.74,63.5,88.72s-.28-5.28-.28-8.18a68.57,68.57,0,0,1,.54-11.7C64.48,64.73,67.58,58.32,67.58,58.32Z"/><path class="cls-6" d="M156,94.1s-3.39,31.69-7.43,41.6c-2,4.84-7.38,12.53-15.15,18.9,10.85-9.43,11.76-34.55,15.67-53.2S148.2,80,148.2,79.63c0,0,3.83-3.09,6.81-5.1C155.69,79.08,156.77,87.89,156,94.1Z"/><path class="cls-12" d="M93,146.61s4.89.78,6.25.95a25.08,25.08,0,0,0,3.78.18c1.58,0,2.27.21,3.45.11s2.82.08,3.12,0a13.11,13.11,0,0,1,2.13.42h-2s-2.27,1.42-2.73,1.74-1.63,1.08-2,1.37-1.1.88-1.1.88l.13-.62a5.8,5.8,0,0,1-.75.78c-.39.33-.67.62-.67.62l-.32-.72s-.22,1.15-.5.89a11.07,11.07,0,0,1-.76-1l-.13,1a6.86,6.86,0,0,1-.62-.49c-.43-.36-1.34-1-1.34-1l.07.65a3,3,0,0,1-.85-.46c-.36-.29-1.76-2-1.76-2s.06.92,0,.75a2.49,2.49,0,0,0-.74-1.2,12.26,12.26,0,0,1-1.25-1.37C94.21,147.86,93,146.61,93,146.61Z"/><path class="cls-12" d="M132.22,152.39c-.45.06-1.76-.13-2.48,0a6.38,6.38,0,0,1-1.69,0,8.86,8.86,0,0,1-1.76-.45s-.72,1.09-1.44.5l-.09-.07a2.35,2.35,0,0,1-.25-.69l-.09-.78.16-1.72.06-.63a4.44,4.44,0,0,1-.6-2.6c.1-.68.29-2.08.29-2.08l-.31.36a2.54,2.54,0,0,0,.15-.85c0-.59.2-2.39.2-2.39s-.62,1-.72,1.18,0-.52,0-.52a1.52,1.52,0,0,0-.83.88,5.8,5.8,0,0,1-.57,1.37l-.23,1.63a16,16,0,0,1-.82,2s.07-.84,0-.71a13.58,13.58,0,0,0-.71,1.5c-.33.81-.75,1.92-.75,1.92l-.65,2.41a2.48,2.48,0,0,1-.32.36,12.84,12.84,0,0,0-2.33,2.48c-.39.71-2,3.13-2,3.13v-1.71a23.28,23.28,0,0,1-2.27,2.75c-1.44,1.5-2.56,3.3-3.86,3.83s-12.44-1.22-14.27-2-5.84-4.89-6.77-5.87-1.7-1.76-1.7-1.76v.65s-.59-.07-1.11-1.5S82,148,82,148l-.26.85-.08-.15a12.73,12.73,0,0,0-.28-2.33c-.22-.52-.22-.13-.29-.91a11.11,11.11,0,0,0-.23-1.5l.33.39a3.13,3.13,0,0,1-.33-.94c-.13-.62-.06-.36-.22-1s-.4-.92-.38-1.21a2.78,2.78,0,0,0,0-.91,6.84,6.84,0,0,1-.15-.82l-.26.56-.65-1.24a5.46,5.46,0,0,1,0,1.3,2.84,2.84,0,0,0-.18.65c0,.36-.16.92-.16.92l.38-.33v.56s.12-.07-.19.68-.31.55-.34,1,.1,3.29,0,3.42h0a1.72,1.72,0,0,1-.68.62c-1,.51-2.47,1.24-2.47,1.24s7.42,13.11,22.29,16,33.4-7,39.18-13.38C137,151.46,132.68,152.32,132.22,152.39Z"/><path class="cls-6" d="M161.06,77a5.28,5.28,0,0,1,2.22,2.61c.91,2-.13,5.3-.83,8.47s-1.35,5.74-1.39,6,.83-6.13.7-7.21-.89-2.48-1.25-4.39S161.06,77,161.06,77Z"/><path class="cls-6" d="M160,87.32a16.85,16.85,0,0,1,0,7.26c-.94,3.35-1.33,3.17-1.59,4.91s-2.61,4.35-2.65,3.39.11-8.34.53-9.43S159.37,87.1,160,87.32Z"/><path class="cls-14" d="M118.77,137.35c-.1.11-6.66,7.77-16.26,8.55a18.79,18.79,0,0,1,4.93-3.42,9.44,9.44,0,0,0,3.11-1.48,13.24,13.24,0,0,1-5,.87,38.14,38.14,0,0,1-6.6-.87l.4-.27c.65,0,1.33,0,2,0A53.21,53.21,0,0,0,118.77,137.35Z"/><path class="cls-15" d="M96.07,143a24.94,24.94,0,0,1-3.84-.67,6.15,6.15,0,0,1-2.8-1.81C89.32,140.22,94.82,141.56,96.07,143Z"/><path class="cls-16" d="M117.59,137.35c-1.06.44-11.26,4.08-17.29,3.61s-13.46-3.51-13.69-3.61a32.24,32.24,0,0,0,5,.31,32.86,32.86,0,0,1,4.77,1.07,15.54,15.54,0,0,0,4.18,1.31c1.08.09,2.39-.47,5-.87a42,42,0,0,0,4.39-1C113.18,137.94,117.44,137.37,117.59,137.35Z"/><path class="cls-17" d="M92.29,117.78c-1.29-.16-2.72-.67-1.83-1.35s8.22-.35,9.52.23,1.63.78-.23,1.12A29.53,29.53,0,0,1,92.29,117.78Z"/><path class="cls-17" d="M97.93,95.14c0-2-.26-5.73.85-6.42s1.17,4.21.71,7.14S97.84,98.86,97.93,95.14Z"/><path class="cls-4" d="M158.71,45.56c-2-4.22-5.35-10.76-7.25-12.33-2.87-2.37-6.6,8.23-6.6,8.23s-6.18-17.38-8.4-20.51-14.15-11.71-34-8.35c-18.56,3.14-22.81,12.68-23.29,14,.28-.49,2.14-2.06,14.31-1.17,14.32,1,31.14,12.52,31.14,12.52l-1.44.39a62.9,62.9,0,0,0-16.68-5.62c-26.34-4.46-43.25,8.79-43.25,8.79C64.7,33.94,72.62,20.09,87,10.65s35.34-10.83,46-4.83,22.17,21.26,23.22,25.56C156.71,33.09,157.69,39,158.71,45.56Z"/><path class="cls-18" d="M81,43.91C75,45.62,70.71,49,68.39,54.59a151.11,151.11,0,0,0-6.78,20.09,14.29,14.29,0,0,1-6.81,1c-.3-2.36-.15-6.34,2.12-12.19C60.56,54.07,70.26,43.94,81,43.91Z"/><path class="cls-18" d="M160.51,65.41a15,15,0,0,1-2.58,3.41,16.5,16.5,0,0,1-1.64.51A17.4,17.4,0,0,1,146.11,64c-4.83-5-30.16-27.54-50.72-28A74.85,74.85,0,0,0,64.64,41.7a36.94,36.94,0,0,1,18.1-8.47c20.08-3,35.2.71,46.81,8.23S160.51,65.41,160.51,65.41Z"/><path class="cls-19" d="M136.09,89.38l-.43.35c-.77.62-2.36,1.89-3.07,2.39a9.35,9.35,0,0,1-5.72,1.78,13.2,13.2,0,0,1-1.73-.1c-4.22-.53-5-1.29-5-1.29l-.69-.19a35.65,35.65,0,0,1-3.9-1.26c-.34-.25,2-2.61,3.84-3.63a3.81,3.81,0,0,1,1.29-.46h.8c.63,0,1.5.09,2.51.18s1.91.2,3,.33c.82.1,1.66.22,2.49.34l.37,0,.66.11a29.9,29.9,0,0,1,5.06,1.12A2.56,2.56,0,0,1,136.09,89.38Z"/><path class="cls-19" d="M90.3,90.42a3,3,0,0,1-.9.68L86.81,92l-.68.23a13.61,13.61,0,0,1-7.37.77l-.34-.07c-3.48-.85-5-2.71-4.57-3.37a7,7,0,0,1,2.84-1.57h0l.91-.3.37-.1A21.47,21.47,0,0,1,80.52,87c.28-.05.56-.08.85-.11l1.95-.22c1-.1,1.82-.18,2.57-.2h.38a7,7,0,0,1,1.31.11,1.84,1.84,0,0,1,.76.32C89.29,87.61,90.46,90.12,90.3,90.42Z"/><path class="cls-7" d="M130.22,88.6a4.45,4.45,0,1,1-8.89,0,4.57,4.57,0,0,1,.17-1.23h.38c.63,0,1.5.08,2.51.18s1.92.19,3,.32l2.49.34.37.06C130.21,88.39,130.22,88.49,130.22,88.6Z"/><path class="cls-20" d="M129.86,88.6a4.09,4.09,0,0,1-8.17,0,4.15,4.15,0,0,1,.19-1.22c.63,0,1.5.08,2.51.18s1.92.19,3,.32l2.49.34C129.85,88.35,129.86,88.48,129.86,88.6Z"/><path class="cls-7" d="M127.5,88.6a1.73,1.73,0,1,1-3.11-1c.91.08,1.92.19,3,.32A1.75,1.75,0,0,1,127.5,88.6Z"/><path class="cls-7" d="M86.48,87.84a4.45,4.45,0,1,1-8.89,0,1.41,1.41,0,0,1,0-.2l.37-.1A21.47,21.47,0,0,1,80.52,87c.28-.05.56-.08.85-.11l1.95-.22c1-.1,1.82-.18,2.57-.2h.38A4.41,4.41,0,0,1,86.48,87.84Z"/><path class="cls-20" d="M86.12,87.84a4.08,4.08,0,1,1-8.16,0c0-.1,0-.2,0-.3A21.47,21.47,0,0,1,80.52,87c.28-.05.56-.08.85-.11l1.95-.22c1-.1,1.82-.18,2.57-.2A4,4,0,0,1,86.12,87.84Z"/><path class="cls-7" d="M83.77,87.84a1.73,1.73,0,1,1-3.46,0,1.76,1.76,0,0,1,.21-.83c.28-.05.56-.08.85-.11l1.95-.22A1.71,1.71,0,0,1,83.77,87.84Z"/><path class="cls-21" d="M119.8,87.71c-.64.54-.61,3.14-.35,4.61a35.65,35.65,0,0,1-3.9-1.26c-.34-.25,2-2.61,3.84-3.63C119.81,87.45,120,87.54,119.8,87.71Z"/><path class="cls-21" d="M135.66,89.73c-.77.62-2.36,1.89-3.07,2.39a9.35,9.35,0,0,1-5.72,1.78,17.33,17.33,0,0,0,5.06-5,16.31,16.31,0,0,1-1.47-.75,1,1,0,0,1,0-.23,29.9,29.9,0,0,1,5.06,1.12A3.3,3.3,0,0,1,135.66,89.73Z"/><path class="cls-21" d="M76.69,87.94a11,11,0,0,0,1.73,4.94c-3.48-.85-5-2.71-4.57-3.37a7,7,0,0,1,2.84-1.57Z"/><path class="cls-21" d="M90.3,90.42a3,3,0,0,1-.9.68L86.81,92c.6-1.45,1.25-3.58.8-5.27l0-.1a1.84,1.84,0,0,1,.76.32C89.29,87.61,90.46,90.12,90.3,90.42Z"/><path class="cls-7" d="M164.93,71.82A139.93,139.93,0,0,0,163.43,54a179.92,179.92,0,0,0-5.16-23.36c-2.3-8-14.1-21.52-21.41-25.22A51.32,51.32,0,0,0,105.64.63c-13.31,2-21.51,8.7-30.62,17S59.41,43.15,59.41,43.15a31.53,31.53,0,0,0-8.2,12.31C48.61,63,48,76.27,53.51,77.88s8,0,8,0-.1,3,0,7.3a86.21,86.21,0,0,0,2.11,14.61c1,4.7.6,26.92,2.7,36.12s16.11,30.92,38.42,31.72,40.23-18.91,44.33-27.42,6.7-30.32,6.7-30.32c5.86,2.46,8.46-5,8-10.25s.4-5.5,2.9-14.71S164.93,71.82,164.93,71.82ZM94.18,8.08c10.81-4.9,29-5.4,38.23,0s11.7,26.42,11.7,26.42a98.4,98.4,0,0,0-1.9-19.31A120,120,0,0,1,152.92,29.7c4.1,6.9,5.8,31.42,5.8,31.42s-4.4-4-10-8.61S127,34,108.39,31.6c-29.92-3.81-42.32,6.8-42.32,6.8C70.27,26.79,83.38,13,94.18,8.08Zm57,111.47c-1.4,8.61-7.71,25.22-13.81,30s-19.71,15.31-34.72,13.81-29.62-17-32.32-26.52-2.8-28.82-3.7-35.92-2-19.11-1.7-25.12,3.1-20.71,9.9-26.61,18-7.51,29-4.3c13.64,4,21,10.4,29.32,17.61s12.31,12.5,18.91,11.1c0,0-.7,7.41.5,10.21s.6,3.9.6,6.7a18.73,18.73,0,0,1-1.1,5.71l2.4-1S152.62,111,151.22,119.55ZM147.12,69C141.51,66.72,121.2,39.7,95,40.1S66.07,54.21,64.37,59s-2.81,12.51-4.51,14.31-6,2.7-7.4-3.2S55.76,49.51,67,41.2s26.91-8.4,32.22-7.7c17,2.25,25.81,8.2,32,12.61S156,67,156,67A7.54,7.54,0,0,1,147.12,69Zm18,11.61c-.6,3.9-3.2,11.7-3.8,15.11s-.2,8.9-1.41,10.5a2.32,2.32,0,0,1-3.6,0,112.81,112.81,0,0,1,.9-11.8,29.33,29.33,0,0,0,3.41-7.81c.8-3.7.68-9.93,1.5-10.51C163.83,74.92,165.73,76.72,165.13,80.63Z"/><path class="cls-7" d="M107.73,84.8a1.18,1.18,0,0,0,.79.55c.26.06.65.13,1.22.23,1.7.3,6.51-.7,6.51-.7l-1.4-.3s3.7-.5,5.4-.8,4.5-1.4,7.81-1.5,3.8.2,5.6,0a18.35,18.35,0,0,0,3.7-.9l-2.4,1,3.5-.6-1.9.8s.5,0,2.8-.1,6.31-3.2,8-3.1c0,0-.2-2.41-6.31-3.61a23.18,23.18,0,0,0-11.9,1.2s1.1-.8,4.6-1.5c0,0-6.31.3-9.71,1.7s-5.3,2.41-5.3,2.41l2.2-1.5s-2.83,1.24-4.2,1.9-4.55,1.15-5.66,2l-1.5,1.1.5-.8a6.26,6.26,0,0,0-1.1.8,12.42,12.42,0,0,1-1,.8l.3-.5-.9.9Z"/><path class="cls-7" d="M91.13,84.67a11.11,11.11,0,0,1-2.62.66,12.67,12.67,0,0,1-2.68,0l2-.66a17.35,17.35,0,0,1-3.09.37c-1.47,0-6.65-.25-8.15-.37S73.15,85.2,72,85l-2.8-.39.61.52A7.84,7.84,0,0,1,67.9,84c-.94-.81-3.29-1-3.85-1.07s-.83-2.18-.83-2.18,1.65-1.91,5.65-2.3a19.49,19.49,0,0,1,8.3,1.48L75.83,79a20,20,0,0,1,3.73,1.18c1.13.61,3,.87,5.26,1.48a35,35,0,0,1,4.55,1.58l-.72-.56s1.35.88,1.91,1.18S91.67,84.28,91.13,84.67Z"/><path class="cls-7" d="M121.73,93.48a9.35,9.35,0,0,0-4.22-1.12c-2.3,0-3.17.44-3.78,0s-.92-.52-.31-1.26,1.39-.65,2.18-1.61a12.74,12.74,0,0,1,2.17-1.91,5.69,5.69,0,0,0-4.48,1.09,8.25,8.25,0,0,1,4.13-2.22c2.65-.56,14.3.87,17.26,1.22a11.57,11.57,0,0,1,5.08,2,6.22,6.22,0,0,0-1.65.57c-.26.26-1.78.78-4.78,2.26a17.27,17.27,0,0,1-6,1.65s2.91-.52,4.12-1.74a38.4,38.4,0,0,0,2.57-3s-10.87-1.79-13.43-1.48a7.17,7.17,0,0,0-4.36,2.65C116,90.84,121.59,91.3,121.73,93.48Z"/><path class="cls-7" d="M82.65,93.36s5.26-1.3,5.95-1.35,1.92,0,2.31,0,.53-.73.44-1a8.1,8.1,0,0,1-1.22-2.52s2-.18,2.65.82a7.53,7.53,0,0,0-4-3c-2.9-1-13.3.83-15.38,1.87a6.8,6.8,0,0,0-3,3l2.48,0a13.09,13.09,0,0,0,3.48,1.74,15.47,15.47,0,0,0,5.23.48,19.16,19.16,0,0,1-4.1-1.43,4,4,0,0,1-2-2.21c0-.31.77-1.42,4.22-2a26.23,26.23,0,0,1,7.44-.26c.91.13,2.34,2.87,2.28,3A24.92,24.92,0,0,0,87,91.3C86.06,91.82,82.65,93.36,82.65,93.36Z"/><path class="cls-7" d="M102.51,122.22a6.1,6.1,0,0,1,6.7-.79,9.22,9.22,0,0,1-3.23,1A20.68,20.68,0,0,1,102.51,122.22Z"/><path class="cls-7" d="M93.91,121.87a4.54,4.54,0,0,0-2.48-1.23,3.59,3.59,0,0,0-2.63,1.13,4.93,4.93,0,0,0,1,.1A7.94,7.94,0,0,0,93.91,121.87Z"/><path class="cls-7" d="M113.42,111.7a6.45,6.45,0,0,1,1,1.34,8.78,8.78,0,0,1,.68,1.53c0,.13.08.27.12.4s.08.27.11.41l.09.41.06.43a1.52,1.52,0,0,1,0,.21l0,.21,0,.43c0,.28,0,.57,0,.85a7.61,7.61,0,0,1-.32,1.7,4.75,4.75,0,0,1-.33.81,4.84,4.84,0,0,1-1.7,2,3.9,3.9,0,0,1-.76.39,2.63,2.63,0,0,1-.82.18,5,5,0,0,0,1.2-1,5.6,5.6,0,0,0,.83-1.24,6.72,6.72,0,0,0,.48-1.39,9,9,0,0,0,.22-1.47v-.19a1.21,1.21,0,0,0,0-.19v-1.14c0-.51-.09-1-.16-1.52s-.19-1-.32-1.54c-.06-.26-.13-.52-.2-.78S113.51,112,113.42,111.7Z"/><path class="cls-7" d="M88.08,113.14c-.14.73-.28,1.42-.4,2.11a20.31,20.31,0,0,0-.26,2c0,.08,0,.16,0,.25v.25a4.34,4.34,0,0,0,0,.51c0,.17,0,.33,0,.5a83.64,83.64,0,0,0,0,.51,13.34,13.34,0,0,0,.38,2.07,4.4,4.4,0,0,1-1.15-1.91,5.44,5.44,0,0,1-.23-1.12,2.64,2.64,0,0,1,0-.28c0-.1,0-.19,0-.29s0-.38,0-.57a7.37,7.37,0,0,1,.51-2.18,7.71,7.71,0,0,1,.49-1A4.77,4.77,0,0,1,88.08,113.14Z"/><path class="cls-7" d="M85.78,136.09c-.26-.26-.26-1.13-1.7-1.13s-2,.17-1.34.93,1.6.72,1.87.94,3.26,1.34,5.56,2.3a36.63,36.63,0,0,0,10.13,2.43c3.6.27,9.86-1.08,11.69-1.6s7.17-2.22,7.61-2.35,2.13-.26,2.82-.87.57-1.22-1-1.39a1.88,1.88,0,0,0-2,.78,47.35,47.35,0,0,1-9.3,3.3,36.12,36.12,0,0,1-13.64.48A35,35,0,0,1,85.78,136.09Z"/></g></g></svg>