<svg xmlns="http://www.w3.org/2000/svg" viewBox="0 0 215.83 178.7"><defs><style>.cls-1{fill:#f5c1a6;}.cls-2{fill:#2e6a34;}.cls-3{fill:#4cb748;}.cls-4{fill:#223d1b;}.cls-5,.cls-8{fill:#da9b81;}.cls-6{fill:#b97058;}.cls-12,.cls-7{fill:#19100c;}.cls-8{opacity:0.5;}.cls-9{fill:#ededee;}.cls-10{fill:#c96a69;}.cls-11{fill:#d67e7c;}.cls-12{opacity:0.2;}.cls-13{fill:#fde1d8;}.cls-14{fill:#ba5f5e;}.cls-15{fill:#f1a0a0;}.cls-16{fill:#a54a49;}.cls-17{fill:#fdd7c6;}.cls-18{fill:#a5a5a5;}.cls-19{fill:#fff;}.cls-20{fill:#342f25;}.cls-21{fill:#c7c4c4;}</style></defs><g id="Layer_2" data-name="Layer 2"><g id="Layer_1-2" data-name="Layer 1"><path class="cls-1" d="M139.94,132s-5.59,20.87-12.27,29.74a88.87,88.87,0,0,1-15,15.19H89.15l-.16-.16c-1-1-6.94-7-9.7-13.33-3-6.92-2.51-17.15-2.51-17.15a34.68,34.68,0,0,0,21.88,7.86c12.93-.19,30.71-12,33.87-16.59s5.7-8.66,5.7-8.66Z"/><path class="cls-2" d="M212.92,176.9H3.46s6.75-12.94,12-16.31,30.9-11.3,30.9-11.3,12.45-4.2,14.11-4.38,9.88-4.19,9.88-4.19,4,3.92,4.09,4.19,5.12,15,6.25,18.78,8.78,11.57,8.6,12.39,22.7,0,22.7,0,18.77-16,21.69-22.69,9.12-25.86,9.12-25.86l19.41,11.15s33.45,13.89,37.64,16.71S212.92,176.9,212.92,176.9Z"/><path class="cls-3" d="M125.11,173.5s15.92-13.25,17.26-16.16,1.45-6.93,3.28-6.32S163,167.79,163,167.79L157.56,149s4.19,2.58,6,3.92,17,11.5,17,11.5l5.35,1.21s-15.8-14.86-16.65-15.33,11.91.35,13.24,1.95S161.22,139.34,160.74,139s-18.37-8.73-18.37-8.73Z"/><path class="cls-3" d="M63.38,176.9s2.43-14.31,2.61-17.59.73-8.3-.36-7.89-15.86,21-15.86,21l-4.42,4.46s6.42-13.94,5.78-13.3-10.57,14.21-10.57,14.21H37.83s7.84-17.4,7.89-18.13-1.39-.77-2.88,0-11.39,9-11.39,9L38,156.25s-1.26.66-3.93,2.15a93.58,93.58,0,0,0-8.48,6.21l1.73-4.51a65.36,65.36,0,0,0-5,4.51c-1.28,1.45-10,8.1-10,8.1l7.75-14.58s38.86-12.44,39.66-12.83,8.92-5.56,8.92-5.56l7.31,7s-4.21,10.16-4.75,10.69-2.58.52-3,3.17.65,17.22.65,17.22Z"/><path class="cls-4" d="M81.21,176.9c-.18-.54-7-18.77-8.29-16.31s-1.37,15.95-1.37,15.95l-3.65-.18s0-28.46-1.45-26.12-16.68,22.2-16.68,22.2S60.43,151.2,60,151.38,45.35,176.9,45.35,176.9l-4.79.91S57.88,148.37,57.7,148s-.82-.91-1.83,0-16.49,23.7-16.49,23.7a24.82,24.82,0,0,1,.54-7.39c.91-3.91,6-12.76,6-12.76s-3.73,3.05-6.63,5.05-10.22,6.53-10.22,6.53,6.89-9.3,6.19-9.66-10.77,3.42-12.17,5S16.59,170,16.59,170l.36-2.47-3.37,9.39H2.28s11-14.76,14.35-17,46.23-15.29,46.75-16a57,57,0,0,1,5.25-4.18l8.21,8.82s-.49,7.13,1.91,12.76,10.4,15.58,10.4,15.58Z"/><path class="cls-4" d="M123.9,176.9a90.82,90.82,0,0,0,11.79-13.61c4.49-6.8,10.33-20.22,10.93-20.44S160,161.1,160,161.1l-5.35-13.49a35.13,35.13,0,0,1,8.88,5.28c4.86,3.84,17,11.5,17,11.5l-10.21-10.27a18.21,18.21,0,0,1,9.48,2.13c4.38,2.54,16.53,12.27,16.53,12.27l-.61-2.68,8.39,11.06h7.17s-8.87-18.45-13.37-20.65-27.59-10.85-33.06-14.54S141.28,127,141.28,127s-6.91,24.69-9.48,28.69S112,176.08,112,176.08Z"/><path class="cls-3" d="M133.74,151.9c.7-.7,9.91-15.68,10.91-15.86s19,11.6,19,11.6l-2-2.55,24.56,11.16c1.73.78,5.29,2.15,5.29,2.15s2.19.27,5.19,2.92,10.36,7.45,10.36,7.45l-10.88-15.34S163.66,139.82,163,139.25s-13.75-9-14.47-8.95-7.2-3.35-7.2-3.35-2.28,11.58-3.65,13.77S133.74,151.9,133.74,151.9Z"/><path class="cls-5" d="M139.94,132s-5.59,20.87-12.27,29.74A85.75,85.75,0,0,1,117.5,172.8c-2.8,2.59-4.78,4.1-4.78,4.1h-6a8.19,8.19,0,0,1,2.82-2.91c6.48-3.89,14.06-21.1,14.06-21.1a39.38,39.38,0,0,1-23.72,8.7c-14.74.49-16.58-3.65-16.58-3.65s0,2.43,1.79,7.78,8.74,10.72,8.74,10.72a34.89,34.89,0,0,1-4.89.3c-1-1-6.94-7-9.7-13.33-1.7-3.87-2.28-8.78-2.47-12.35-.14-2.81,0-4.8,0-4.8a34.68,34.68,0,0,0,21.88,7.86c12.93-.19,30.71-12,33.87-16.59s5.7-8.66,5.7-8.66Z"/><path class="cls-6" d="M139.94,132s-5.59,20.87-12.27,29.74A85.75,85.75,0,0,1,117.5,172.8a3.38,3.38,0,0,1,1.12-3.14c6.61-6.43,8.35-20.56,8.35-20.56a48.8,48.8,0,0,1-27.78,9.68c-16.21.19-19.9-6.88-19.9-6.88s-1-.29-2.47-.84c-.14-2.81,0-4.8,0-4.8a34.68,34.68,0,0,0,21.88,7.86c12.93-.19,30.71-12,33.87-16.59s5.7-8.66,5.7-8.66Z"/><path class="cls-6" d="M79.57,155.76s8,17.38,15,19.53C94.6,175.29,81.3,174.81,79.57,155.76Z"/><path class="cls-7" d="M202.53,154.4c-4.74-3.55-7.66-4.66-14.4-7.67s-28-10.78-29.6-12-11.3-7.53-12.88-8.38a51.42,51.42,0,0,1-5.69-4.58l-71.6,15.76a67.7,67.7,0,0,1-5,4.83,14.3,14.3,0,0,1-3.65,1.27c-1.91.55-8.11,1.92-11.51,3.1s-30,8.48-35.79,14.13S0,178.7,0,178.7H215.83S207.27,157.94,202.53,154.4ZM6.38,175.29s4.1-7.87,6.38-9.78,4.74-4.1,4.74-4.1v3.64s2.28-4.46,4.38-5.92,19.5-6.73,19.5-6.73l-6.11,7s8.66-6.1,10.66-7a37.89,37.89,0,0,1,6.48-1.66A23.49,23.49,0,0,0,57.7,148l-10,17.13s11.76-14.94,13.67-17.4a7.47,7.47,0,0,1,4.38-2.83l-13.4,22.6S59.25,163,61.25,161s6.84-12.67,6.84-12.67l2.7,14s1.12-14.13,1.12-14.58,3.29,9.84,4.93,13.85,7.47,13.61,7.47,13.61ZM97,175.2C85.25,174,79.16,163.67,79.29,148s59.65-22.74,59.65-22.74S134.84,148.46,129,157,108.83,176.42,97,175.2Zm35.37-16.65c6-7.78,10.69-28.25,10.69-28.25s9.36,6.13,10.94,7.23,10.69,14.22,10.69,14.22l-1.82-8.63s20.78,8.63,23,9.84,8.38,11.18,8.38,11.18l-2.43-7.89s5,1.57,6.08,2.42,10.57,16.62,10.57,16.62H117.42A200.73,200.73,0,0,0,132.41,158.55Z"/><path class="cls-1" d="M145.41,87.7s-3.16,29.53-6.93,38.77c-2.07,5.08-8.19,13.52-17,19.79-7.15,5.13-16.06,8.8-26,8a30.28,30.28,0,0,1-4.39-.67h0c-19-4.37-27.32-26.15-27.88-28.86-.61-2.92-3-28.32-2.76-29.9s-1.33-10.72-1.55-15q0-.5,0-.9V66.8s2.62-16.17,13-23.94A19.8,19.8,0,0,1,81.31,39c18.28-2.43,33.35,9.6,33.35,9.6s13.24,13.25,20.18,16.65S144,66.68,144,66.68,146.39,79.57,145.41,87.7Z"/><path class="cls-5" d="M84.49,128.44a35.43,35.43,0,0,1-3.92-1.79c-.75-.53-1.31-1.36-2.91-1.4s-1.8.3-1.7,1,1.21,1.62,2.32,2l4.12,1.24C82.76,129.53,84.49,128.44,84.49,128.44Z"/><path class="cls-6" d="M108.74,128.33a8.41,8.41,0,0,1,2.58-2.19,5,5,0,0,1,3.15-.22c1.07.24.74,2-.11,2.41s-7,1-7,1Z"/><path class="cls-8" d="M82.36,109.24c.08.28.13.47.14.52S82.3,109.59,82.36,109.24Z"/><path class="cls-8" d="M145.41,87.7s-3.16,29.53-6.93,38.77c-2.07,5.08-8.19,13.52-17,19.79-7.15,5.13-16.06,8.8-26,8a30.28,30.28,0,0,1-4.39-.67c4.85-.49,6.92-11.61,1.3-14s-8.53-8.18-8.53-8.18l7.35-.93s3.62-6.56,2.49-9.24-6-3.16-7.11-5.63-1.57-2.48-1.57-2.48l4.93,0a30.16,30.16,0,0,0,4.89-.75C96,112,97,109,93.58,108.06s-4.68-.67-8.44-.19c-2.14.28-2.69.92-2.78,1.37a6,6,0,0,1-.07-3.31c.58-1.48,4.27-2.28,4.27-2.28s3.86-1.37,5.56-4.34,1-21.09,3.86-23.64,13.94-11.91-2.22-12.4-21.15,7.45-21.15,7.45L70.79,57s0-2.79,1.09-14.1A19.8,19.8,0,0,1,81.31,39c18.28-2.43,33.35,9.6,33.35,9.6s13.24,13.25,20.18,16.65S144,66.68,144,66.68,146.39,79.57,145.41,87.7Z"/><path class="cls-8" d="M87.52,98.21s.5-10.79.12-13.9-4.21-3.17-4.21-3.17l-.85,5.53-2,2.55s.53,1,1.56,2.49,1.28,1.76,1.46,3S87.52,98.21,87.52,98.21Z"/><path class="cls-5" d="M149.18,69.6s3.63-.41,4.82,1,1.12,7.32,0,10.05-2.64,6.69-2.58,9.48-.42,15.8-7.1,9.69l1-13.76Z"/><path class="cls-9" d="M149.59,61a14.09,14.09,0,0,1-2.4,3.18c-1.93,1.92-5,3.76-9,2.46C131,64.25,113.74,42.41,96.43,40.34c-8.5-1-15.51-1-21,.58-5.63,1.59-9.57,4.76-11.74,10A141.23,141.23,0,0,0,57.42,69.6a13.34,13.34,0,0,1-6.35.91,5.64,5.64,0,0,1-2.4-1c-3.28-2.38,0-16.6,0-16.6A50,50,0,0,1,60.25,38.86,34.43,34.43,0,0,1,77.11,31c18.72-2.82,32.81.66,43.63,7.67S149.59,61,149.59,61Z"/><path class="cls-2" d="M150.88,62.06S134,44.93,114.78,35.68a59.57,59.57,0,0,0-15.55-5.24c-24.55-4.15-40.31,8.2-40.31,8.2,1.38-7,8.76-19.92,22.2-28.72S114.05-.16,124,5.43s20.66,19.8,21.64,23.82c.4,1.59,1.3,7.13,2.25,13.21C149.35,51.64,150.88,62.06,150.88,62.06Z"/><path class="cls-5" d="M145.41,87.7s-3.16,29.53-6.93,38.77c-1.84,4.52-6.87,11.68-14.12,17.62h0c-.91.75-1.86,1.48-2.84,2.17,8.66-13.73,6.63-32.11,6.87-37,.37-7.34,3.41-12.35,5.47-16.61s3.41-9.23,1.1-9.06-5.29,4.51-9.06,6.39a10.31,10.31,0,0,1-7.18.79,9.89,9.89,0,0,0,4.39-2,15.53,15.53,0,0,1-6,1,18.56,18.56,0,0,1-6.8-1.28c.67,1.82,4.92,3.52,4.92,3.52-7.35.13-7.9-1.33-7.9-1.33a38.68,38.68,0,0,1-.49,5.84c-.48,2.75-1.09,4.12-1,5.28s4.44,6.38,1.84,11-9.56,1.88-10.83,1.8-2.89.84-4.62.81-3.25-1-4.13-1.16-3.89.13-5.35-.57-2.58-2.62-1.74-6.47,5.54-3.56,5.54-3.56a5.27,5.27,0,0,0-3,2.74c-1.33,2.37-.55,2.94.31,3.55s2.76.43,5.16,1.25,3.59.27,5.2,0,6.56.12,7.68-.22,1.7-3.34.85-4.55-4.86-3.59-5.28-5.17S98,89,98.66,85a13.07,13.07,0,0,1,3.62-6.84c11.69-3.81,12.93-16.25,4.54-22.63s-20.6-4.93-27.89.72S74.07,71.9,75,73a17.72,17.72,0,0,0,7.58,4c3.56,1,5.39,5.93,5,9A9.15,9.15,0,0,1,86,90.62s-.61-2.76-1.74-2.92S81.36,89,80,89.46a14.64,14.64,0,0,1-4.29.37,5.75,5.75,0,0,0,5.14-3.89s-9.36-.55-8.15.27A24.8,24.8,0,0,0,76.81,88s-4.71.22-6.44-.51-4.11-1.67-4.62-2a17.9,17.9,0,0,1-2-1.55s1.19-.72,2.34-1.45,2.54-.52,3.07-.7,5.06-1.11,5.06-1.11,0-1.35-1.87-1.16-5.74,1.29-8.72,1.17A16.93,16.93,0,0,1,59,79.85q0-.5,0-.9V66.8S63,41.4,81.31,39s33.35,9.6,33.35,9.6,13.24,13.25,20.18,16.65S144,66.68,144,66.68s.2,1.06.46,2.78C145.1,73.7,146.11,81.91,145.41,87.7Z"/><path class="cls-6" d="M104.21,114.58s2-1.39,1.52-5.29a7.36,7.36,0,0,0-5.8-6.37s4.31-.46,6.2,1.68S107.86,113,104.21,114.58Z"/><path class="cls-6" d="M98.44,112.42a4.29,4.29,0,0,1,4,1c.67.77,2.37.57,2.37.57a4.76,4.76,0,0,1-4,1,33.07,33.07,0,0,0-3.88-.73,7.22,7.22,0,0,0-1.76.16S95.58,113,98.44,112.42Z"/><path class="cls-6" d="M87.66,113.66A3.18,3.18,0,0,0,85,112.3a2.67,2.67,0,0,0-2.47,1.11A4.39,4.39,0,0,0,85,114,11.74,11.74,0,0,0,87.66,113.66Z"/><path class="cls-6" d="M98.66,93s.49-11.12,3.6-13.92,17.38-5.28,17.38-5.28,2.52-3.71-.92-11.73-5.52-13.61-5.52-13.61,12.63,11.73,18.12,14.63A46.29,46.29,0,0,0,140,66.89c.37.09,2.54.29,2.54.29V73a25.57,25.57,0,0,1-5.76,5.64c-3,1.9-7.62,7.61-10,9.4a10.37,10.37,0,0,1-4.41,2.06s.93,0,2.31-1.78a17.64,17.64,0,0,0,2.19-4s-.13-1.34-.94-1.5-4.33-1-4.33-1,2-2.54.16-3.66-8.42-.84-9.88.42.56,2.51.56,2.51-2.55,1.37-2.67,1.46-1.7,2-2.11,2.35S111.42,86,111.42,86a17.85,17.85,0,0,1-4.13.65,5.37,5.37,0,0,0-4.62,2C101.46,90.25,99.71,90.74,98.66,93Z"/><path class="cls-6" d="M73.71,77.37S68.65,73.6,72,61.21,98.12,42,102.26,42.49,83.84,33.74,72,41.28,59.8,63,59.8,63V75.06s4.09.4,4.82.49S73.71,77.37,73.71,77.37Z"/><path class="cls-6" d="M86,87.26s.22-2.52.16-3.06,1,.83,1,.83A9.63,9.63,0,0,0,86,80.71a9.76,9.76,0,0,0-2.67-2.58H76.12s1.44,1.31.85,2.68c0,0,4.27-.38,5.06.11s1.4,2.81,1.46,2.91.36.67.26.85a11,11,0,0,1-2,.77S85.64,85.84,86,87.26Z"/><path class="cls-5" d="M82.09,113.13s-1,.86-2.71,2.4a28.9,28.9,0,0,1-5.11,3.24,9,9,0,0,0,3-3.69c.61-2,2-7.54,5.07-9.15Z"/><path class="cls-5" d="M107.65,108.51A17.39,17.39,0,0,1,112,112.3c1.82,2.32,1.88,4.49,4,6.47a9.47,9.47,0,0,1-4.18-2.31c-2.46-2.06-4.92-3.91-4.92-3.91Z"/><path class="cls-10" d="M109.59,128c-1,.41-10.49,3.8-16.11,3.36S80.94,128.1,80.72,128a31.51,31.51,0,0,0,4.66.29c1.77,0,3.48.08,4,.15,1.14.17,3.69,1.22,4.14,1.22s2.18-.69,3.16-.8,1.29.11,4.31,0c.44,0,1,0,1.49-.08C105.49,128.56,109.45,128,109.59,128Z"/><path class="cls-11" d="M110.69,128c-.09.1-6.2,7.24-15.15,8l-.93.05c-9.52.28-13.61-6-13.9-8,0,0,4,2.9,11.84,3.15.61,0,1.24,0,1.9,0A49.63,49.63,0,0,0,110.69,128Z"/><path class="cls-12" d="M117.05,125.78a20.19,20.19,0,0,1-.38,4.52,4.06,4.06,0,0,1-.88-1.28l-.61.33a12.21,12.21,0,0,1-1.61-.79,5.1,5.1,0,0,0-2.07-.75c-.73-.1-2.34-.25-3-.28H108c-1,0-2.88.19-4.16.27-1.58.09-3.86,0-4.59,0s-1.31.09-3.31.2a13.38,13.38,0,0,1-4.5-.45,12.84,12.84,0,0,1-2.22-.91c-.51-.27-1.52.27-1.52.27l.61-.72a18.48,18.48,0,0,1-3.25.6c-1,0-2.54.15-3,.15s-3.37,0-3.55,0-2,.82-2.92,1.06a2.19,2.19,0,0,1-1.61-.2l.29-.73-.75.57a4.77,4.77,0,0,1,.31-2.72A4,4,0,0,1,76,122.7l-.29.85s1.11-1.06,1.74-1.82a14.59,14.59,0,0,1,2.88-2.07c.59-.36,3-1.42,3-1.42s3.25-2.6,3.34-2.63.18.24.3.49.75-.1.75-.1l.44.66a5.59,5.59,0,0,1,.7.82c.09.21,1.27-.49,1.79-.22s.13-.26,0-.41l.88,1.26s.52.27.7.39.27-.3.27-.3l.61.39.43-.42s.7.51,1,.39a2.2,2.2,0,0,0,.64-.52l0,.49a8.79,8.79,0,0,0,1.39-1s.09-.07.19-.1c.55-.18,2.17-.31,2.24-.36a5,5,0,0,0-1,0,25.14,25.14,0,0,1,2.62-.94,5.57,5.57,0,0,1,1.65.73c1,.57,2.56,1.33,2.56,1.33l-1.21-.12a30.73,30.73,0,0,0,5.2,1.77,30.69,30.69,0,0,1,6.08,2.39,13,13,0,0,1,2.51,1.87l-1.1-.33A3.89,3.89,0,0,1,117.05,125.78Z"/><path class="cls-12" d="M94.88,123s0,2.64,0,3-.7.85-.94.88a22.83,22.83,0,0,1-3.8-.76,2.56,2.56,0,0,1,0-1.64c.16-.15,1-.45,1.64-.88a5,5,0,0,0,1.1-1s-.09,1.7.06,1.46,2-3,2-3Z"/><path class="cls-12" d="M117.05,125.78a20.19,20.19,0,0,1-.38,4.52,4.06,4.06,0,0,1-.88-1.28l-.61.33a12.21,12.21,0,0,1-1.61-.79,5.1,5.1,0,0,0-2.07-.75c-.73-.1-2.34-.25-3-.28H108a25.86,25.86,0,0,0-2.55-.71,7.66,7.66,0,0,1-2.43-.77s.89,1.1,1,1.22a12.63,12.63,0,0,1-3.69-1.5,14,14,0,0,1-2.15-1.88c-.48-.5-.16-1.48-.16-1.48l-1.25-.69v-1.22s-.89.21-.77-.16.2-.69.28-1a8.06,8.06,0,0,1,.49-1s0-.43,0-.93c.55-.18,2.17-.31,2.24-.36a5,5,0,0,0-1,0,25.14,25.14,0,0,1,2.62-.94,5.57,5.57,0,0,1,1.65.73c1,.57,2.56,1.33,2.56,1.33l-1.21-.12a30.73,30.73,0,0,0,5.2,1.77,30.69,30.69,0,0,1,6.08,2.39,13,13,0,0,1,2.51,1.87l-1.1-.33A3.89,3.89,0,0,1,117.05,125.78Z"/><path class="cls-12" d="M89.08,118.93c.1-.19.18.58-.36,1.37s-.17.49-1.06,1.12-3.2,2.13-3.2,2.13l1-1.3a7.11,7.11,0,0,1-2.33,1.51A25.19,25.19,0,0,0,79.31,126l.32-.6s-1,.61-1.64,1a10.31,10.31,0,0,1-1.91.82,3.59,3.59,0,0,1,.27-.43,11.85,11.85,0,0,0-1.39.43s.31-.36.25-.43-.43,0-.43,0,.22-.46.12-.46-1.38.57-1.29.46,0-.87.58-1.37,2-1.87,2-1.87l-.39.59s0-.45,1.28-1.36A35.74,35.74,0,0,1,80.17,121l-.81.72,1.88-.87a48.67,48.67,0,0,0,4.38-2.7s-.93.63-.69.65a17.68,17.68,0,0,0,2-.5l-1,1.09,2.09-.59s-.92,1.14-.67,1.14A3.47,3.47,0,0,0,89.08,118.93Z"/><path class="cls-6" d="M90,137.53a34.06,34.06,0,0,0,4.48.52,30.85,30.85,0,0,0,4.7-.26l-1.18.47h.88l-1.24.76a5.13,5.13,0,0,1-3.34.79C92.45,139.59,90.42,138.71,90,137.53Z"/><path class="cls-13" d="M63,54.35s-1.55,12.72-1.42,14.91,2.6,6.72,2.78,7a19.42,19.42,0,0,0,2.1,1.82s-3.23,1.44-.84,5.49L63.8,84s2.37,13,2.65,17.78-.37,18.54,3.82,27.91,8.48,17,8.48,17-13.49-8.47-15.49-22-3.81-38.34-4.07-42.08-.27-4.93-.27-7.63a64.2,64.2,0,0,1,.51-10.91C60.1,60.33,63,54.35,63,54.35Z"/><path class="cls-6" d="M145.41,87.7s-3.16,29.53-6.93,38.77c-1.84,4.52-6.87,11.68-14.12,17.62,10.12-8.79,11-32.21,14.61-49.58s-.85-19.93-.85-20.3c0,0,3.58-2.88,6.35-4.75C145.1,73.7,146.11,81.91,145.41,87.7Z"/><path class="cls-12" d="M86.63,136.64s4.55.73,5.82.89a24.63,24.63,0,0,0,3.53.16c1.47,0,2.11.2,3.21.1s2.63.08,2.91,0a12.82,12.82,0,0,1,2,.4h-1.83s-2.12,1.32-2.55,1.62-1.52,1-1.82,1.27-1,.82-1,.82l.12-.57a5.25,5.25,0,0,1-.7.72c-.36.31-.62.58-.62.58l-.3-.67s-.21,1.07-.46.82a8.29,8.29,0,0,1-.72-.88l-.12.92s-.18-.13-.57-.46-1.25-.94-1.25-.94l.06.6a3,3,0,0,1-.79-.42c-.33-.27-1.64-1.89-1.64-1.89s.06.86,0,.7a2.25,2.25,0,0,0-.69-1.12A10.74,10.74,0,0,1,88,138C87.8,137.8,86.63,136.64,86.63,136.64Z"/><path class="cls-12" d="M123.23,142c-.43.06-1.64-.12-2.31,0a6,6,0,0,1-1.58,0,9,9,0,0,1-1.64-.42s-.67,1-1.34.46l-.08-.06a2.5,2.5,0,0,1-.24-.64l-.08-.73.15-1.61,0-.58a4.22,4.22,0,0,1-.56-2.42c.1-.64.28-1.95.28-1.95l-.3.34a2.21,2.21,0,0,0,.15-.79c0-.55.18-2.23.18-2.23s-.58.89-.67,1.1,0-.49,0-.49a1.4,1.4,0,0,0-.77.83,5.1,5.1,0,0,1-.54,1.27s-.15,1.13-.21,1.52a14.49,14.49,0,0,1-.76,1.89s.06-.79,0-.67a14.09,14.09,0,0,0-.67,1.4l-.7,1.79-.6,2.25a2,2,0,0,1-.3.33,12.28,12.28,0,0,0-2.17,2.31c-.36.67-1.82,2.92-1.82,2.92v-1.6a22.27,22.27,0,0,1-2.12,2.57c-1.34,1.4-2.38,3.07-3.59,3.57s-11.61-1.14-13.31-1.87-5.44-4.56-6.3-5.47-1.6-1.64-1.6-1.64V144s-.54-.06-1-1.4-2.37-4.74-2.37-4.74l-.24.79-.08-.14a11.45,11.45,0,0,0-.26-2.17c-.21-.48-.21-.12-.27-.85a11.61,11.61,0,0,0-.21-1.4l.3.37a3.06,3.06,0,0,1-.3-.88,9,9,0,0,0-.22-.94c-.15-.61-.36-.85-.35-1.13a2.43,2.43,0,0,0,0-.85,6.55,6.55,0,0,1-.13-.76l-.24.52-.61-1.16a5.34,5.34,0,0,1,0,1.22,2.72,2.72,0,0,0-.17.61c0,.33-.15.85-.15.85l.36-.31v.52s.1-.06-.18.64-.29.51-.32.94.09,3.06,0,3.19h0a1.74,1.74,0,0,1-.64.58l-2.29,1.15s6.91,12.22,20.77,14.95,31.13-6.56,36.52-12.47C127.67,141.16,123.66,142,123.23,142Z"/><path class="cls-6" d="M150.11,71.78a5,5,0,0,1,2.06,2.43c.85,1.86-.12,4.94-.77,7.9s-1.25,5.35-1.29,5.59.77-5.71.65-6.72-.83-2.31-1.17-4.1A16.21,16.21,0,0,1,150.11,71.78Z"/><path class="cls-6" d="M149.12,81.38a15.67,15.67,0,0,1,0,6.77c-.88,3.12-1.24,2.95-1.48,4.57s-2.43,4-2.47,3.16.1-7.77.49-8.79S148.53,81.18,149.12,81.38Z"/><path class="cls-14" d="M110.69,128c-.09.1-6.2,7.24-15.15,8a17.31,17.31,0,0,1,4.6-3.19,8.63,8.63,0,0,0,2.89-1.38,12.16,12.16,0,0,1-4.69.81,35.86,35.86,0,0,1-6.16-.81l.37-.25c.61,0,1.24,0,1.9,0A49.63,49.63,0,0,0,110.69,128Z"/><path class="cls-15" d="M89.54,133.27a23.2,23.2,0,0,1-3.58-.62A5.75,5.75,0,0,1,83.35,131C83.25,130.68,88.37,131.94,89.54,133.27Z"/><path class="cls-16" d="M109.59,128c-1,.41-10.49,3.8-16.11,3.36S80.94,128.1,80.72,128a31.51,31.51,0,0,0,4.66.29,33,33,0,0,1,4.45,1,14.67,14.67,0,0,0,3.89,1.23c1,.08,2.23-.45,4.66-.81a39.65,39.65,0,0,0,4.1-.92C105.49,128.56,109.45,128,109.59,128Z"/><path class="cls-17" d="M86,109.77c-1.2-.15-2.53-.63-1.7-1.26s7.66-.33,8.87.22,1.52.72-.21,1A27.91,27.91,0,0,1,86,109.77Z"/><path class="cls-17" d="M91.27,88.67c0-1.83-.25-5.34.79-6s1.09,3.92.67,6.65S91.19,92.14,91.27,88.67Z"/><path class="cls-4" d="M147.91,42.46c-1.88-3.93-5-10-6.75-11.49-2.68-2.21-6.16,7.67-6.16,7.67s-5.75-16.2-7.82-19.12S114,8.61,95.46,11.75c-17.29,2.92-21.25,11.81-21.71,13,.27-.45,2-1.91,13.35-1.09,13.34,1,29,11.67,29,11.67l-1.34.36a59.57,59.57,0,0,0-15.55-5.24c-24.55-4.15-40.31,8.2-40.31,8.2,1.38-7,8.76-19.92,22.2-28.72S114.05-.16,124,5.43s20.66,19.8,21.64,23.82C146.06,30.84,147,36.38,147.91,42.46Z"/><path class="cls-18" d="M75.48,40.92c-5.63,1.59-9.57,4.76-11.74,10A141.23,141.23,0,0,0,57.42,69.6a13.34,13.34,0,0,1-6.35.91c-.28-2.2-.14-5.91,2-11.37C56.44,50.39,65.48,41,75.48,40.92Z"/><path class="cls-18" d="M149.59,61a14.09,14.09,0,0,1-2.4,3.18,12.93,12.93,0,0,1-1.53.47,16.16,16.16,0,0,1-9.49-5C131.68,55,108.06,34,88.9,33.5a69.67,69.67,0,0,0-28.65,5.36A34.43,34.43,0,0,1,77.11,31c18.72-2.82,32.81.66,43.63,7.67S149.59,61,149.59,61Z"/><path class="cls-19" d="M126.83,83.31l-.4.32c-.71.57-2.19,1.76-2.86,2.23a8.86,8.86,0,0,1-5.33,1.66,13.23,13.23,0,0,1-1.61-.1c-3.93-.49-4.66-1.2-4.66-1.2l-.65-.18a31.16,31.16,0,0,1-3.63-1.18c-.32-.22,1.82-2.42,3.58-3.37a3.3,3.3,0,0,1,1.2-.43l.39,0h.36c.58,0,1.4.08,2.34.17s1.78.18,2.75.3c.77.1,1.55.2,2.33.32l.34,0,.62.1a28.85,28.85,0,0,1,4.71,1A1.72,1.72,0,0,1,126.83,83.31Z"/><path class="cls-19" d="M84.16,84.27a2.91,2.91,0,0,1-.84.64l-2.41.79-.64.21a12.73,12.73,0,0,1-6.87.72l-.31-.07c-3.24-.79-4.71-2.52-4.26-3.13A6.33,6.33,0,0,1,71.48,82h0c.26-.1.54-.19.84-.28l.34-.09a19.21,19.21,0,0,1,2.39-.5l.78-.1,1.82-.21c.9-.09,1.7-.16,2.4-.18h.35a5.5,5.5,0,0,1,1.23.11,1.71,1.71,0,0,1,.71.29A6.51,6.51,0,0,1,84.16,84.27Z"/><path class="cls-7" d="M121.36,82.58a4.14,4.14,0,1,1-8.28,0,4,4,0,0,1,.16-1.15h.35c.59,0,1.4.07,2.34.16s1.79.19,2.76.31c.76.09,1.55.2,2.32.31l.34.06C121.36,82.38,121.36,82.48,121.36,82.58Z"/><path class="cls-20" d="M121,82.58a3.8,3.8,0,0,1-7.6,0,3.88,3.88,0,0,1,.17-1.14c.59,0,1.4.07,2.34.16s1.79.19,2.76.31c.76.09,1.55.2,2.32.31C121,82.34,121,82.46,121,82.58Z"/><path class="cls-7" d="M118.83,82.58a1.61,1.61,0,0,1-3.22,0,1.64,1.64,0,0,1,.32-1c.84.08,1.79.19,2.76.31A1.64,1.64,0,0,1,118.83,82.58Z"/><path class="cls-7" d="M80.6,81.87a4.14,4.14,0,0,1-8.28,0v-.19l.34-.09a19.21,19.21,0,0,1,2.39-.5l.78-.1,1.82-.21c.9-.09,1.7-.16,2.4-.18h.35A4.13,4.13,0,0,1,80.6,81.87Z"/><path class="cls-20" d="M80.26,81.87a3.81,3.81,0,0,1-7.61,0c0-.1,0-.19,0-.28a19.21,19.21,0,0,1,2.39-.5l.78-.1,1.82-.21c.9-.09,1.7-.16,2.4-.18A3.76,3.76,0,0,1,80.26,81.87Z"/><path class="cls-7" d="M78.07,81.87a1.61,1.61,0,1,1-3.22,0,1.56,1.56,0,0,1,.2-.78l.78-.1,1.82-.21A1.63,1.63,0,0,1,78.07,81.87Z"/><path class="cls-21" d="M111.65,81.75c-.59.5-.56,2.93-.33,4.29a31.16,31.16,0,0,1-3.63-1.18c-.32-.22,1.82-2.42,3.58-3.37C111.67,81.51,111.85,81.58,111.65,81.75Z"/><path class="cls-21" d="M126.43,83.63c-.71.57-2.19,1.76-2.86,2.23a8.86,8.86,0,0,1-5.33,1.66A16.61,16.61,0,0,0,123,82.9c-.19,0-1.37-.7-1.37-.7a.84.84,0,0,1,0-.21,28.85,28.85,0,0,1,4.71,1A2.9,2.9,0,0,1,126.43,83.63Z"/><path class="cls-21" d="M71.48,82a10.19,10.19,0,0,0,1.61,4.6c-3.24-.79-4.71-2.52-4.26-3.13A6.33,6.33,0,0,1,71.48,82Z"/><path class="cls-21" d="M84.16,84.27a2.91,2.91,0,0,1-.84.64l-2.41.79a8.41,8.41,0,0,0,.74-4.92.31.31,0,0,1,0-.08,1.71,1.71,0,0,1,.71.29A6.51,6.51,0,0,1,84.16,84.27Z"/><path class="cls-7" d="M153.71,66.94a129.4,129.4,0,0,0-1.4-16.6,169,169,0,0,0-4.8-21.78c-2.15-7.46-13.15-20-20-23.5A47.76,47.76,0,0,0,98.46.59c-12.41,1.86-20,8.11-28.54,15.85S55.37,40.22,55.37,40.22a29.33,29.33,0,0,0-7.64,11.47c-2.43,7-3,19.4,2.14,20.89s7.46,0,7.46,0-.09,2.8,0,6.81a81,81,0,0,0,2,13.61c.93,4.39.56,25.09,2.52,33.67s15,28.81,35.81,29.56,37.49-17.63,41.31-25.55,6.25-28.26,6.25-28.26c5.45,2.29,7.88-4.71,7.41-9.56s.38-5.13,2.71-13.71S153.71,66.94,153.71,66.94ZM87.78,7.53c10.07-4.57,27-5,35.62,0s10.91,24.62,10.91,24.62a92.14,92.14,0,0,0-1.77-18,112.13,112.13,0,0,1,10,13.53c3.82,6.43,5.41,29.28,5.41,29.28s-4.1-3.73-9.33-8S118.32,31.65,101,29.45c-27.88-3.55-39.45,6.34-39.45,6.34C65.49,25,77.71,12.1,87.78,7.53Zm53.16,103.89c-1.31,8-7.19,23.5-12.87,28s-18.38,14.27-32.36,12.87S68.1,136.41,65.58,127.55,63,100.7,62.13,94.07s-1.86-17.81-1.58-23.4,2.89-19.31,9.23-24.81,16.79-7,27-4c12.72,3.7,19.59,9.7,27.33,16.41s11.47,11.66,17.62,10.36c0,0-.65,6.9.47,9.51s.56,3.63.56,6.25a17.27,17.27,0,0,1-1,5.31l2.24-.93S142.24,103.4,140.94,111.42Zm-3.83-47.09C131.89,62.18,113,37,88.53,37.37S61.57,50.52,60,55s-2.61,11.66-4.2,13.34-5.59,2.51-6.9-3S52,46.14,62.41,38.4s25.09-7.83,30-7.18c15.87,2.1,24.06,7.65,29.84,11.75s23.13,19.49,23.13,19.49A7,7,0,0,1,137.11,64.33ZM153.9,75.14c-.56,3.64-3,10.91-3.55,14.09s-.18,8.3-1.3,9.79a2.17,2.17,0,0,1-3.36,0,103.58,103.58,0,0,1,.84-11,26.62,26.62,0,0,0,3.17-7.27c.75-3.45.64-9.26,1.4-9.79C152.69,69.83,154.46,71.51,153.9,75.14Z"/><path class="cls-7" d="M100.41,79a1.09,1.09,0,0,0,.73.52l1.14.21c1.59.28,6.06-.65,6.06-.65l-1.3-.28s3.45-.47,5-.75,4.2-1.3,7.28-1.4,3.54.19,5.22,0a16.58,16.58,0,0,0,3.45-.84l-2.24.94,3.26-.56-1.77.74s.47,0,2.61-.09,5.88-3,7.46-2.89c0,0-.18-2.24-5.87-3.36a21.61,21.61,0,0,0-11.1,1.12,12.2,12.2,0,0,1,4.29-1.4s-5.87.28-9,1.59-5,2.23-5,2.23l2.06-1.39s-2.64,1.15-3.92,1.77-4.24,1.07-5.27,1.82-1.4,1-1.4,1l.47-.74a5.31,5.31,0,0,0-1,.74c-.65.56-.93.75-.93.75l.28-.47-.84.84Z"/><path class="cls-7" d="M84.93,78.91a10.33,10.33,0,0,1-2.44.62,11.67,11.67,0,0,1-2.49,0l1.88-.62a15.5,15.5,0,0,1-2.89.34c-1.36,0-6.19-.23-7.59-.34s-3.22.49-4.32.34l-2.61-.35.58.48a7.42,7.42,0,0,1-1.76-1.13c-.89-.76-3.07-1-3.6-1s-.77-2-.77-2,1.54-1.78,5.27-2.14a18.11,18.11,0,0,1,7.73,1.37l-1.25-.85a18.47,18.47,0,0,1,3.48,1.1,29,29,0,0,0,4.9,1.37,34.08,34.08,0,0,1,4.24,1.48L82.62,77s1.25.82,1.78,1.1S85.43,78.55,84.93,78.91Z"/><path class="cls-7" d="M113.45,87.12a8.73,8.73,0,0,0-3.93-1c-2.15,0-3,.41-3.53,0s-.85-.49-.28-1.17,1.3-.61,2-1.5a12,12,0,0,1,2-1.79,5.29,5.29,0,0,0-4.17,1,7.68,7.68,0,0,1,3.85-2.07c2.47-.53,13.32.81,16.08,1.14a10.72,10.72,0,0,1,4.74,1.82,5.76,5.76,0,0,0-1.54.52c-.24.25-1.66.73-4.46,2.11a16.06,16.06,0,0,1-5.54,1.54s2.71-.49,3.84-1.62A33.12,33.12,0,0,0,125,83.33S114.82,81.66,112.43,82a6.73,6.73,0,0,0-4.06,2.47C108.1,84.66,113.33,85.09,113.45,87.12Z"/><path class="cls-7" d="M77,87s4.9-1.21,5.55-1.25,1.78,0,2.15,0,.5-.69.41-.89A7.57,7.57,0,0,1,84,82.52s1.9-.17,2.47.77a7,7,0,0,0-3.77-2.84c-2.7-.92-12.4.77-14.34,1.74A6.35,6.35,0,0,0,65.61,85l2.3,0a12.43,12.43,0,0,0,3.24,1.62A14.41,14.41,0,0,0,76,87a18,18,0,0,1-3.83-1.33,3.78,3.78,0,0,1-1.87-2.06c0-.29.72-1.33,3.94-1.9a24.48,24.48,0,0,1,6.93-.25c.85.12,2.19,2.68,2.13,2.77a21,21,0,0,0-2.25.85C80.21,85.57,77,87,77,87Z"/><path class="cls-7" d="M95.54,113.91a5.36,5.36,0,0,1,3-1.31,5.46,5.46,0,0,1,3.27.58,8.66,8.66,0,0,1-3,.92A19.56,19.56,0,0,1,95.54,113.91Z"/><path class="cls-7" d="M87.52,113.59a4.17,4.17,0,0,0-2.31-1.16,3.36,3.36,0,0,0-2.45,1.06,5,5,0,0,0,.91.1A7.66,7.66,0,0,0,87.52,113.59Z"/><path class="cls-7" d="M105.71,104.11a6,6,0,0,1,.92,1.24,8,8,0,0,1,.63,1.43c0,.12.08.25.12.37s.07.25.1.38.06.26.08.39l.06.39,0,.2v.2l0,.39a7.06,7.06,0,0,1,0,.8,6.76,6.76,0,0,1-.3,1.59,5.33,5.33,0,0,1-.3.75,4.57,4.57,0,0,1-.42.71,4.3,4.3,0,0,1-1.17,1.12,3.16,3.16,0,0,1-.71.36,2.53,2.53,0,0,1-.76.17,4.94,4.94,0,0,0,1.12-.95,5.2,5.2,0,0,0,.77-1.16,5.8,5.8,0,0,0,.45-1.29,7.92,7.92,0,0,0,.2-1.38l0-.17v-.53c0-.12,0-.24,0-.35v-.36a14,14,0,0,0-.16-1.42,14.49,14.49,0,0,0-.29-1.43c-.06-.24-.12-.48-.19-.73S105.79,104.35,105.71,104.11Z"/><path class="cls-7" d="M82.09,105.44c-.13.68-.26,1.33-.37,2a17.94,17.94,0,0,0-.24,1.9,2,2,0,0,0,0,.23v.24c0,.16,0,.31,0,.47a3.69,3.69,0,0,0,0,.47c0,.08,0,.16,0,.24s0,.16,0,.23a12.88,12.88,0,0,0,.36,1.94,4.11,4.11,0,0,1-1.08-1.79,6.18,6.18,0,0,1-.21-1c0-.09,0-.17,0-.26s0-.18,0-.27,0-.35,0-.53a6.68,6.68,0,0,1,.47-2,7.26,7.26,0,0,1,.45-.93A4.67,4.67,0,0,1,82.09,105.44Z"/><path class="cls-7" d="M80,126.83c-.25-.24-.25-1-1.58-1s-1.91.16-1.26.87,1.5.67,1.74.87,3,1.26,5.19,2.15a34.48,34.48,0,0,0,9.44,2.27c3.36.24,9.19-1,10.89-1.5s6.69-2.07,7.09-2.19a7,7,0,0,0,2.63-.81c.65-.57.53-1.13-.89-1.3a1.75,1.75,0,0,0-1.86.73,44.68,44.68,0,0,1-8.67,3.08A33.79,33.79,0,0,1,90,130.4,32.43,32.43,0,0,1,80,126.83Z"/></g></g></svg>